<svg xmlns="http://www.w3.org/2000/svg" version="1.1" xmlns:xlink="http://www.w3.org/1999/xlink" xmlns:svgjs="http://svgjs.dev/svgjs" width="1500" height="318" viewBox="0 0 1500 318"><g transform="matrix(1,0,0,1,-0.9090909090909918,-1.3753644935159741)"><svg viewBox="0 0 396 84" data-background-color="#ffffff" preserveAspectRatio="xMidYMid meet" height="318" width="1500" xmlns="http://www.w3.org/2000/svg" xmlns:xlink="http://www.w3.org/1999/xlink"><g id="tight-bounds" transform="matrix(1,0,0,1,0.2400000000000091,0.3633038284759209)"><svg viewBox="0 0 395.52 83.27339234304813" height="83.27339234304813" width="395.52"><g><svg viewBox="0 0 524.9761694808582 110.5292944274121" height="83.27339234304813" width="395.52"><g transform="matrix(1,0,0,1,129.4561694808582,15.27575632100993)"><svg viewBox="0 0 395.52 79.97778178539224" height="79.97778178539224" width="395.52"><g id="textblocktransform"><svg viewBox="0 0 395.52 79.97778178539224" height="79.97778178539224" width="395.52" id="textblock"><g><svg viewBox="0 0 395.52 79.97778178539224" height="79.97778178539224" width="395.52"><g transform="matrix(1,0,0,1,0,0)"><svg width="395.52" viewBox="3.7 -35 221.79000000000002 44.85" height="79.97778178539224" data-palette-color="#48aee3"><path d="M37.95-13.85Q37.95-6.8 33.5-3.1 29.05 0.6 20.85 0.6L20.85 0.6Q12.65 0.6 8.18-3.1 3.7-6.8 3.7-13.85L3.7-13.85 3.7-34.4 14.75-34.4 14.75-14Q14.75-11.1 16.3-9.38 17.85-7.65 20.8-7.65L20.8-7.65Q23.75-7.65 25.33-9.4 26.9-11.15 26.9-14L26.9-14 26.9-34.4 37.95-34.4 37.95-13.85ZM62.05-27Q67.4-27 70.3-23.5 73.2-20 73.2-13.15L73.2-13.15Q73.2-6.35 70.3-2.88 67.4 0.6 62.05 0.6L62.05 0.6Q57.45 0.6 54.65-2.4L54.65-2.4 54.65 9.85 44.7 9.85 44.7-26.4 52.8-26.4 53.65-22.65Q56.55-27 62.05-27L62.05-27ZM58.95-19.65Q56.75-19.65 55.65-18.1 54.55-16.55 54.55-14.05L54.55-14.05 54.55-12.4Q54.55-9.9 55.65-8.33 56.75-6.75 58.95-6.75L58.95-6.75Q63.25-6.75 63.25-11.9L63.25-11.9 63.25-14.55Q63.25-19.65 58.95-19.65L58.95-19.65ZM93.15-35Q99.75-35 104-32.33 108.25-29.65 108.34-24.4L108.34-24.4 108.34-23.8 98-23.8 98-24Q98-25.5 96.9-26.5 95.8-27.5 93.55-27.5L93.55-27.5Q91.34-27.5 90.17-26.85 89-26.2 89-25.25L89-25.25Q89-23.9 90.59-23.25 92.2-22.6 95.75-21.9L95.75-21.9Q99.9-21.05 102.57-20.13 105.25-19.2 107.25-17.1 109.25-15 109.3-11.4L109.3-11.4Q109.3-5.3 105.17-2.35 101.05 0.6 94.15 0.6L94.15 0.6Q86.09 0.6 81.62-2.1 77.15-4.8 77.15-11.65L77.15-11.65 87.59-11.65Q87.59-9.05 88.95-8.18 90.3-7.3 93.15-7.3L93.15-7.3Q95.25-7.3 96.62-7.75 98-8.2 98-9.6L98-9.6Q98-10.85 96.47-11.48 94.95-12.1 91.5-12.8L91.5-12.8Q87.3-13.7 84.55-14.68 81.8-15.65 79.75-17.9 77.7-20.15 77.7-24L77.7-24Q77.7-29.65 82.07-32.33 86.45-35 93.15-35L93.15-35ZM126.09-26.4L131.69-26.4 131.69-19.65 126.09-19.65 126.09-9.6Q126.09-7.8 126.69-6.98 127.29-6.15 128.89-6.15L128.89-6.15 131.69-6.15 131.69-0.3Q130.49 0.1 128.59 0.35 126.69 0.6 125.29 0.6L125.29 0.6Q120.89 0.6 118.52-1 116.14-2.6 116.14-6.45L116.14-6.45 116.14-19.65 112.44-19.65 112.44-26.4 116.54-26.4 118.69-34.4 126.09-34.4 126.09-26.4ZM149.34-27Q155.39-27 159.19-24.98 162.99-22.95 162.99-18.4L162.99-18.4 162.99-8.1Q162.99-7.25 163.39-6.7 163.79-6.15 164.59-6.15L164.59-6.15 166.39-6.15 166.39-0.4Q166.24-0.3 165.62-0.08 164.99 0.15 163.84 0.38 162.69 0.6 161.19 0.6L161.19 0.6Q158.29 0.6 156.42-0.28 154.54-1.15 153.84-2.7L153.84-2.7Q151.94-1.2 149.59-0.3 147.24 0.6 144.09 0.6L144.09 0.6Q134.79 0.6 134.79-6.8L134.79-6.8Q134.79-10.65 136.87-12.68 138.94-14.7 142.84-15.45 146.74-16.2 153.04-16.2L153.04-16.2 153.04-17.5Q153.04-19.05 151.97-19.85 150.89-20.65 149.19-20.65L149.19-20.65Q147.64-20.65 146.52-20.1 145.39-19.55 145.39-18.35L145.39-18.35 145.39-18.15 135.59-18.15Q135.54-18.4 135.54-18.85L135.54-18.85Q135.54-22.6 139.12-24.8 142.69-27 149.34-27L149.34-27ZM153.04-11.5Q148.79-11.5 146.77-10.58 144.74-9.65 144.74-8.1L144.74-8.1Q144.74-5.6 148.14-5.6L148.14-5.6Q150.09-5.6 151.57-6.65 153.04-7.7 153.04-9.25L153.04-9.25 153.04-11.5ZM192.94-23.3L181.74-6.75 193.39-6.75 193.39 0 167.64 0 167.64-3.25 178.74-19.65 168.24-19.65 168.24-26.4 192.94-26.4 192.94-23.3ZM210.59-27Q217.84-27 221.66-23.6 225.49-20.2 225.49-13.2L225.49-13.2 225.49-11.5 205.69-11.5Q205.69-8.65 206.96-7.2 208.24-5.75 210.99-5.75L210.99-5.75Q213.49-5.75 214.66-6.8 215.84-7.85 215.84-9.6L215.84-9.6 225.49-9.6Q225.49-4.8 221.84-2.1 218.19 0.6 211.19 0.6L211.19 0.6Q203.84 0.6 199.79-2.83 195.74-6.25 195.74-13.2L195.74-13.2Q195.74-20 199.69-23.5 203.64-27 210.59-27L210.59-27ZM210.99-20.65Q206.29-20.65 205.74-16.2L205.74-16.2 215.44-16.2Q215.44-18.25 214.26-19.45 213.09-20.65 210.99-20.65L210.99-20.65Z" opacity="1" transform="matrix(1,0,0,1,0,0)" fill="#48aee3" class="wordmark-text-0" data-fill-palette-color="primary" id="text-0"></path></svg></g></svg></g></svg></g></svg></g><g><svg viewBox="0 0 110.57533466808994 110.5292944274121" height="110.5292944274121" width="110.57533466808994"><g><svg xmlns="http://www.w3.org/2000/svg" xmlns:xlink="http://www.w3.org/1999/xlink" version="1.1" x="0" y="0" viewBox="5.000000000000001 5.000000000000001 90 89.96252670929331" enable-background="new 0 0 100 100" xml:space="preserve" height="110.5292944274121" width="110.57533466808994" class="icon-icon-0" data-fill-palette-color="accent" id="icon-0"><path d="M81.8 18.2C64.2 0.6 35.8 0.6 18.2 18.2S0.6 64.3 18.2 81.8 64.2 99.4 81.8 81.8 99.4 35.8 81.8 18.2M71.3 64.2L50 42.9 28.7 64.2 21.6 57.1 50 28.7 78.4 57.1z" fill="#0a0114" data-fill-palette-color="accent"></path></svg></g></svg></g></svg></g><defs></defs></svg><rect width="395.52" height="83.27339234304813" fill="none" stroke="none" visibility="hidden"></rect></g></svg></g></svg>